#define down_arrow_outline_width 9
#define down_arrow_outline_height 6
static unsigned char down_arrow_outline_bits[] = {
  0xFF, 0x01, 0x01, 0x01, 0x82, 0x00, 0x44, 0x00, 0x28, 0x00, 0x10, 0x00, 
  };
