#define splash_screen_width 128
#define splash_screen_height 64
static unsigned char splash_screen_bits[] = {
  0x00, 0x00, 0x00, 0x00, 0x00, 0x00, 0x00, 0x60, 0x0E, 0x00, 0x00, 0x00, 
  0x00, 0x00, 0x00, 0x00, 0x00, 0x00, 0x00, 0x00, 0x00, 0x00, 0x00, 0xA0, 
  0x1A, 0x00, 0x00, 0x00, 0x00, 0x00, 0x00, 0x00, 0x00, 0x00, 0x00, 0x00, 
  0x00, 0x00, 0x00, 0xA0, 0x32, 0x00, 0x00, 0x00, 0x00, 0x00, 0x00, 0x00, 
  0x00, 0x00, 0x00, 0x00, 0x00, 0x00, 0x00, 0x20, 0x23, 0x00, 0x00, 0x00, 
  0x00, 0x00, 0x00, 0x00, 0x00, 0x00, 0x00, 0x00, 0x00, 0x00, 0x00, 0x20, 
  0x22, 0x00, 0x00, 0x00, 0x00, 0x00, 0x00, 0x00, 0x00, 0x00, 0x00, 0x00, 
  0x00, 0x00, 0x00, 0xE0, 0x23, 0x00, 0x00, 0x00, 0x00, 0x00, 0x00, 0x00, 
  0x00, 0x00, 0x00, 0x00, 0x00, 0x00, 0x00, 0x30, 0xE0, 0x07, 0x00, 0x00, 
  0x00, 0x00, 0x00, 0x00, 0x00, 0x00, 0x00, 0x00, 0x00, 0x00, 0x00, 0x08, 
  0x00, 0x1C, 0x00, 0x00, 0x00, 0x00, 0x00, 0x00, 0x00, 0x00, 0x06, 0x00, 
  0x00, 0x00, 0x00, 0x0C, 0x00, 0x30, 0x00, 0x00, 0xF8, 0x00, 0x00, 0x00, 
  0x1C, 0x3C, 0x07, 0x00, 0x00, 0x00, 0x00, 0x04, 0x00, 0x60, 0x00, 0x00, 
  0x8C, 0x01, 0x00, 0x00, 0x1C, 0x0E, 0x03, 0x03, 0x03, 0x00, 0x00, 0x06, 
  0x00, 0xC0, 0x00, 0x00, 0x04, 0x01, 0x00, 0x00, 0x1C, 0x0E, 0x80, 0x83, 
  0x03, 0x00, 0x00, 0x02, 0x00, 0x80, 0x01, 0x00, 0x04, 0x02, 0x00, 0x00, 
  0x1C, 0x07, 0x80, 0x83, 0x03, 0x00, 0x00, 0x03, 0x00, 0x00, 0x01, 0x00, 
  0x04, 0x0C, 0x00, 0x00, 0x9C, 0x03, 0xE7, 0xFF, 0xFF, 0xC0, 0x81, 0x81, 
  0x01, 0x00, 0x03, 0x00, 0x04, 0x18, 0x00, 0x00, 0xDC, 0x01, 0xE7, 0xFF, 
  0xDF, 0xE1, 0xC0, 0x70, 0x00, 0x00, 0x06, 0x00, 0x0C, 0x30, 0x00, 0x00, 
  0xFC, 0x01, 0x87, 0x83, 0xC3, 0xE1, 0x40, 0x0C, 0x00, 0x00, 0x0C, 0x00, 
  0x38, 0x20, 0x00, 0x00, 0xFC, 0x01, 0x87, 0x83, 0x83, 0x61, 0x40, 0x00, 
  0x00, 0x00, 0x18, 0x00, 0x60, 0x60, 0x00, 0x00, 0xFC, 0x03, 0x87, 0x83, 
  0x83, 0x63, 0x40, 0x1C, 0x00, 0x00, 0x10, 0x00, 0xC0, 0x40, 0x00, 0x00, 
  0x3C, 0x07, 0x87, 0x83, 0x83, 0x73, 0x40, 0xE2, 0x01, 0x00, 0x30, 0x00, 
  0x80, 0x41, 0x00, 0x00, 0x1C, 0x07, 0x87, 0x83, 0x03, 0x33, 0x40, 0x00, 
  0x00, 0x00, 0x60, 0x00, 0x00, 0x41, 0x00, 0x00, 0x1C, 0x0E, 0x87, 0x83, 
  0x03, 0x37, 0x80, 0x00, 0x00, 0x00, 0xC0, 0x00, 0x00, 0x43, 0x00, 0x00, 
  0x1C, 0x0E, 0x87, 0x83, 0x03, 0x3E, 0x80, 0x01, 0x00, 0x00, 0x80, 0x00, 
  0x00, 0x42, 0x00, 0x00, 0x1C, 0x1C, 0x87, 0x83, 0x03, 0x1E, 0x00, 0x03, 
  0x00, 0x00, 0x80, 0x01, 0x00, 0x82, 0x00, 0x00, 0x1C, 0x1C, 0x07, 0x1F, 
  0x1F, 0x1E, 0x00, 0x1C, 0x00, 0x00, 0x00, 0x03, 0x00, 0x82, 0x00, 0x00, 
  0x1C, 0x38, 0x07, 0x1E, 0x1E, 0x1C, 0x00, 0x30, 0x00, 0x00, 0x00, 0x06, 
  0x00, 0x82, 0x01, 0x00, 0x00, 0x00, 0x00, 0x00, 0x00, 0x0C, 0x00, 0x60, 
  0x00, 0x00, 0x00, 0x0C, 0x00, 0x02, 0x01, 0x00, 0x00, 0x00, 0x00, 0x00, 
  0x00, 0x0E, 0x00, 0x80, 0x01, 0x00, 0x00, 0x08, 0x00, 0x04, 0x02, 0x00, 
  0x00, 0x00, 0x00, 0x00, 0x00, 0x06, 0x00, 0x00, 0x07, 0x00, 0x00, 0x10, 
  0x00, 0x04, 0x06, 0x00, 0x00, 0x00, 0x00, 0x00, 0xC0, 0x07, 0x00, 0x00, 
  0x06, 0x00, 0x00, 0x30, 0x00, 0x08, 0x0C, 0x00, 0x00, 0x00, 0x00, 0x00, 
  0xC0, 0x03, 0x00, 0x00, 0x04, 0x00, 0x00, 0x60, 0x00, 0x18, 0x18, 0x00, 
  0x00, 0x00, 0x00, 0x00, 0x00, 0x00, 0x00, 0x00, 0x08, 0x00, 0x00, 0xC0, 
  0x00, 0x60, 0x10, 0x00, 0x00, 0x00, 0x00, 0x00, 0x00, 0x00, 0x00, 0x00, 
  0x08, 0x00, 0x00, 0x80, 0x01, 0xC0, 0x20, 0x00, 0x00, 0x00, 0x00, 0x00, 
  0x00, 0x00, 0x00, 0x00, 0x18, 0x00, 0x00, 0x00, 0x03, 0x80, 0x61, 0x00, 
  0x00, 0x00, 0x00, 0x00, 0x00, 0x00, 0x00, 0x00, 0x10, 0x00, 0x00, 0x00, 
  0x06, 0x00, 0x43, 0x00, 0x00, 0x00, 0x00, 0x00, 0x00, 0x00, 0x00, 0x00, 
  0x10, 0x00, 0x00, 0x00, 0x0C, 0x00, 0x86, 0x00, 0x00, 0x00, 0x00, 0x00, 
  0x00, 0x00, 0x00, 0x00, 0x10, 0x00, 0x00, 0x00, 0x18, 0x00, 0x84, 0x00, 
  0x00, 0x00, 0x00, 0x00, 0x00, 0x00, 0x00, 0x00, 0x10, 0x00, 0x00, 0x00, 
  0x70, 0x00, 0x08, 0x01, 0x00, 0x00, 0x00, 0x00, 0x38, 0x00, 0x0E, 0x00, 
  0x20, 0x02, 0x00, 0x00, 0xE0, 0x01, 0x18, 0x01, 0xC0, 0x07, 0x00, 0x00, 
  0x38, 0x00, 0x0E, 0x00, 0x20, 0x06, 0x00, 0x00, 0x00, 0x03, 0x10, 0x02, 
  0xF0, 0x1F, 0x00, 0x00, 0x38, 0x00, 0x0E, 0x00, 0x20, 0x04, 0x00, 0x00, 
  0x00, 0x06, 0x10, 0x06, 0x78, 0x0C, 0x00, 0x00, 0x38, 0x00, 0x0E, 0x00, 
  0x20, 0x04, 0x00, 0x00, 0x00, 0x0C, 0x10, 0x04, 0x1C, 0x00, 0x00, 0x00, 
  0x38, 0x00, 0x0E, 0x00, 0x20, 0x04, 0x00, 0x00, 0x00, 0x18, 0x10, 0x04, 
  0x1C, 0x00, 0x7C, 0xC0, 0x3B, 0xF0, 0xEE, 0xC0, 0x21, 0x04, 0x00, 0x00, 
  0x00, 0x10, 0x10, 0x08, 0x0E, 0x00, 0xFF, 0xE0, 0x3F, 0xF8, 0xCF, 0xE1, 
  0x60, 0x04, 0x00, 0x00, 0x00, 0x10, 0x10, 0x08, 0x0E, 0x00, 0xE3, 0x70, 
  0x3C, 0x1C, 0xCF, 0xE1, 0x40, 0x04, 0x01, 0x00, 0x00, 0x30, 0x10, 0x08, 
  0x0E, 0x00, 0xC0, 0x39, 0x38, 0x0E, 0x8E, 0x61, 0x40, 0x04, 0x01, 0x00, 
  0x00, 0x20, 0x10, 0x08, 0x0E, 0x00, 0xF8, 0x39, 0x38, 0x0E, 0x8E, 0x63, 
  0x40, 0x04, 0x03, 0x38, 0x00, 0x20, 0x10, 0x10, 0x0E, 0x00, 0xFE, 0x39, 
  0x38, 0x0E, 0x8E, 0x73, 0x40, 0x04, 0x03, 0x04, 0x00, 0x40, 0x08, 0x10, 
  0x0E, 0x00, 0xCF, 0x39, 0x38, 0x0E, 0x0E, 0x33, 0x40, 0x04, 0x05, 0x02, 
  0x00, 0x40, 0x0C, 0x10, 0x1C, 0x80, 0xC3, 0x39, 0x38, 0x0E, 0x0E, 0x37, 
  0x40, 0x04, 0x05, 0x02, 0x00, 0x40, 0x06, 0x08, 0x1C, 0x88, 0xC3, 0x39, 
  0x38, 0x0E, 0x0E, 0x3E, 0x40, 0x04, 0x0D, 0x01, 0x00, 0xC0, 0x03, 0x08, 
  0x38, 0x9C, 0xE3, 0x71, 0x3C, 0x1C, 0x0F, 0x1E, 0x40, 0x04, 0x09, 0x01, 
  0x00, 0x40, 0x00, 0x0C, 0xF0, 0x1F, 0xFF, 0xF1, 0x3F, 0xFC, 0x0F, 0x1E, 
  0x40, 0x04, 0x09, 0x01, 0x00, 0xC0, 0x00, 0x04, 0xC0, 0x07, 0xDE, 0xC1, 
  0x3B, 0xF0, 0x0E, 0x1C, 0x40, 0x04, 0x11, 0x01, 0x00, 0x80, 0x00, 0x02, 
  0x00, 0x00, 0x00, 0x00, 0x00, 0x00, 0x00, 0x0C, 0x40, 0x04, 0x71, 0x01, 
  0x00, 0x80, 0x00, 0x01, 0x00, 0x00, 0x00, 0x00, 0x00, 0x00, 0x00, 0x0E, 
  0x40, 0x04, 0xE1, 0x01, 0x00, 0x80, 0xE0, 0x00, 0x00, 0x00, 0x00, 0x00, 
  0x00, 0x00, 0x00, 0x06, 0x40, 0x04, 0x11, 0x01, 0x00, 0x80, 0x3E, 0x00, 
  0x00, 0x00, 0x00, 0x00, 0x00, 0x00, 0xC0, 0x07, 0x40, 0x84, 0x18, 0x01, 
  0x00, 0x80, 0x01, 0x00, 0x00, 0x00, 0x00, 0x00, 0x00, 0x00, 0xC0, 0x03, 
  0x60, 0x84, 0x8C, 0x00, 0x00, 0xC0, 0x00, 0x00, 0x00, 0x00, 0x00, 0x00, 
  0x00, 0x00, 0x00, 0x00, 0x10, 0xC2, 0x66, 0x00, 0x00, 0x60, 0x00, 0x00, 
  0x00, 0x00, 0x00, 0x00, 0x00, 0x00, 0x00, 0x00, 0x10, 0x42, 0x13, 0x00, 
  0x00, 0x38, 0x00, 0x00, 0x00, 0x00, 0x00, 0x00, 0x00, 0x00, 0x00, 0x00, 
  0x10, 0xC3, 0x09, 0x00, 0xC0, 0x0F, 0x00, 0x00, 0x00, 0x00, 0x00, 0x00, 
  0x00, 0x00, 0x00, 0x00, 0x10, 0xA1, 0x09, 0x00, 0x60, 0x00, 0x00, 0x00, 
  0x00, 0x00, 0x00, 0x00, 0x00, 0x00, 0x00, 0x00, 0xF0, 0x1E, 0xFF, 0xFF, 
  0x1F, 0x00, 0x00, 0x00, };
