#define up_arrow_solid_width 9
#define up_arrow_solid_height 6
static unsigned char up_arrow_solid_bits[] = {
  0x10, 0x00, 0x38, 0x00, 0x7C, 0x00, 0xFE, 0x00, 0xFF, 0x01, 0xFF, 0x01, 
  };
